<?xml version="1.0" encoding="UTF-8"?>
<!DOCTYPE svg PUBLIC "-//W3C//DTD SVG 1.1//EN" "http://www.w3.org/Graphics/SVG/1.1/DTD/svg11.dtd">
<svg version="1.1" xmlns="http://www.w3.org/2000/svg" xmlns:xlink="http://www.w3.org/1999/xlink" x="0" y="0" width="222.709" height="234.13" viewBox="0, 0, 222.709, 234.13">
  <g id="Layer_1" transform="translate(-400.646, -394.935)">
    <g>
      <path d="M523.947,524.381 C538.735,524.381 550.692,512.335 550.692,497.436 C550.692,482.536 538.735,470.463 523.947,470.463 C509.158,470.463 497.174,482.536 497.174,497.436 C497.174,512.335 509.158,524.381 523.947,524.381" fill="#000000"/>
      <path d="M498.735,589.929 C498.735,592.837 501.05,596.617 503.964,596.617 L503.964,596.562 L516.301,596.562 L516.329,596.617 C519.216,596.617 522.967,592.892 522.967,589.984 L522.967,567.044 C522.967,564.149 519.216,560.452 516.329,560.452 L503.964,560.452 C501.24,560.452 499.027,563.937 498.735,566.578 C516.519,566.578 516.438,589.929 498.735,589.929 M487.514,533.019 C490.373,530.22 494.268,528.574 498.51,528.574 L551.292,528.574 L604.41,474.93 C615.767,463.405 630.658,478.36 619.28,489.898 L561.042,548.728 L561.083,629.065 L491.238,629.065 L491.238,590.045 L459.682,590.045 C453.084,590.045 447.752,584.688 447.752,578.054 C447.752,575.201 448.699,572.614 450.333,570.536 L487.514,533.019 z" fill="#000000"/>
      <path d="M403.117,428.322 L409.592,434.86 L440.954,402.584 L434.438,396.06 L420.248,401.459 L413.746,394.935 L400.646,408.079 L407.121,414.657 z" fill="#000000"/>
      <path d="M451.368,530.813 C450.769,534.791 453.472,538.359 457.339,538.907 C461.193,539.538 464.877,536.712 465.374,532.905 C465.946,528.954 463.297,525.345 459.375,524.81 C455.508,524.22 451.885,526.889 451.368,530.813" fill="#000000"/>
      <path d="M457.516,514.555 C458.061,510.802 455.535,507.372 451.824,506.851 C448.113,506.302 444.709,508.875 444.205,512.586 C443.66,516.366 446.214,519.713 449.897,520.235 C453.54,520.838 456.992,518.211 457.516,514.555" fill="#000000"/>
      <path d="M449.666,496.201 C450.156,492.661 447.793,489.396 444.266,488.847 C440.753,488.381 437.553,490.788 437.035,494.342 C436.545,497.93 438.908,501.078 442.394,501.607 C445.9,502.203 449.176,499.631 449.666,496.201" fill="#000000"/>
      <path d="M441.819,477.789 C442.309,474.469 440.048,471.368 436.698,470.874 C433.348,470.38 430.325,472.685 429.862,476.033 C429.372,479.408 431.66,482.399 434.955,482.948 C438.251,483.469 441.349,481.054 441.819,477.789" fill="#000000"/>
      <path d="M433.975,459.411 C434.438,456.249 432.259,453.285 429.147,452.887 C425.995,452.448 423.162,454.589 422.699,457.737 C422.236,460.982 424.361,463.754 427.5,464.302 C430.618,464.755 433.532,462.519 433.975,459.411" fill="#000000"/>
      <path d="M415.516,439.493 C415.053,442.484 417.123,445.119 420.037,445.619 C422.951,446.086 425.702,443.946 426.138,441.064 C426.54,438.101 424.531,435.329 421.617,434.938 C418.587,434.493 415.925,436.557 415.516,439.493" fill="#000000"/>
      <path d="M477.779,504.889 C477.963,501.02 481.266,497.974 485.133,498.187 C489,498.413 491.969,501.672 491.785,505.623 C491.642,509.547 488.326,512.483 484.432,512.298 C480.585,512.188 477.568,508.868 477.779,504.889" fill="#000000"/>
      <path d="M473.367,497.22 C469.684,497.062 466.824,493.947 467.049,490.147 C467.205,486.436 470.371,483.61 474.014,483.767 C477.725,483.994 480.53,487.088 480.36,490.854 C480.203,494.592 477.064,497.377 473.367,497.22" fill="#000000"/>
      <path d="M462.327,482.097 C458.841,481.939 456.117,479.003 456.301,475.45 C456.498,471.91 459.467,469.18 462.953,469.392 C466.439,469.55 469.136,472.541 468.979,476.095 C468.829,479.573 465.833,482.31 462.327,482.097" fill="#000000"/>
      <path d="M451.262,467.087 C447.967,466.93 445.386,464.151 445.57,460.776 C445.754,457.429 448.539,454.884 451.862,455.041 C455.184,455.179 457.71,458.032 457.554,461.353 C457.445,464.68 454.585,467.307 451.262,467.087" fill="#000000"/>
      <path d="M440.219,452.023 C437.107,451.865 434.663,449.169 434.86,446.021 C435.017,442.913 437.624,440.498 440.79,440.608 C443.888,440.766 446.319,443.434 446.149,446.624 C446.02,449.718 443.323,452.181 440.219,452.023" fill="#000000"/>
      <path d="M424.102,431.334 C424.259,428.398 426.751,426.093 429.685,426.23 C432.627,426.353 434.887,428.871 434.751,431.828 C434.608,434.764 432.075,437.117 429.168,436.904 C426.233,436.746 423.945,434.27 424.102,431.334" fill="#000000"/>
      <path d="M496.956,474.596 C493.062,474.808 489.685,471.797 489.576,467.893 C489.365,463.915 492.408,460.608 496.303,460.43 C500.082,460.293 503.404,463.229 503.575,467.235 C503.813,471.056 500.851,474.438 496.956,474.596" fill="#000000"/>
      <path d="M488.52,456.084 C488.704,459.672 485.94,462.786 482.283,462.944 C478.668,463.102 475.502,460.317 475.366,456.66 C475.209,452.99 478.014,449.91 481.657,449.718 C485.252,449.56 488.336,452.332 488.52,456.084" fill="#000000"/>
      <path d="M473.466,444.913 C473.623,448.288 471.022,451.196 467.617,451.334 C464.213,451.505 461.258,448.898 461.128,445.489 C460.972,442.032 463.641,439.123 467.045,438.965 C470.395,438.801 473.282,441.428 473.466,444.913" fill="#000000"/>
      <path d="M458.412,433.789 C458.548,436.952 456.124,439.682 452.958,439.806 C449.805,439.963 447.055,437.487 446.918,434.338 C446.782,431.094 449.261,428.446 452.413,428.267 C455.552,428.109 458.255,430.572 458.412,433.789" fill="#000000"/>
      <path d="M432.722,423.143 C432.565,420.152 434.874,417.621 437.815,417.518 C440.702,417.36 443.228,419.658 443.371,422.594 C443.507,425.558 441.247,428.089 438.305,428.192 C435.398,428.329 432.831,426.024 432.722,423.143" fill="#000000"/>
      <path d="M445.89,408.871 C448.777,408.432 451.555,410.49 451.991,413.426 C452.393,416.362 450.384,419.161 447.443,419.552 C444.488,420.018 441.778,417.933 441.342,414.997 C440.927,412.033 443.003,409.31 445.89,408.871" fill="#000000"/>
      <path d="M471.178,421.298 C471.641,424.405 469.462,427.314 466.378,427.718 C463.307,428.212 460.393,426.017 459.985,422.978 C459.549,419.857 461.7,416.907 464.785,416.482 C467.828,416.063 470.715,418.204 471.178,421.298" fill="#000000"/>
      <path d="M490.386,429.111 C490.876,432.431 488.616,435.422 485.347,435.916 C482.1,436.41 479.056,434.105 478.593,430.867 C478.157,427.595 480.418,424.556 483.632,424.062 C486.845,423.589 489.889,425.846 490.386,429.111" fill="#000000"/>
      <path d="M509.56,437.027 C510.077,440.457 507.714,443.62 504.31,444.155 C500.933,444.621 497.685,442.268 497.249,438.838 C496.759,435.408 499.108,432.205 502.478,431.738 C505.876,431.183 509.069,433.597 509.56,437.027" fill="#000000"/>
      <path d="M528.764,444.906 C529.281,448.494 526.81,451.821 523.256,452.342 C519.715,452.891 516.365,450.373 515.875,446.82 C515.385,443.232 517.843,439.85 521.383,439.329 C524.924,438.849 528.219,441.318 528.764,444.906" fill="#000000"/>
      <path d="M547.972,452.761 C548.544,456.527 545.922,460.011 542.225,460.533 C538.514,461.082 535.001,458.441 534.511,454.743 C533.966,451.004 536.533,447.465 540.23,446.916 C543.968,446.401 547.427,449.015 547.972,452.761" fill="#000000"/>
      <path d="M559.104,454.503 C562.999,453.954 566.594,456.698 567.166,460.629 C567.738,464.477 565.028,468.12 561.181,468.724 C557.341,469.3 553.657,466.556 553.146,462.652 C552.602,458.736 555.237,455.079 559.104,454.503" fill="#000000"/>
    </g>
  </g>
</svg>
